<?xml version="1.0" encoding="utf-8"?>
<!-- Generator: Adobe Illustrator 16.0.0, SVG Export Plug-In . SVG Version: 6.00 Build 0)  -->
<!DOCTYPE svg PUBLIC "-//W3C//DTD SVG 1.1//EN" "http://www.w3.org/Graphics/SVG/1.1/DTD/svg11.dtd">
<svg version="1.1" id="Ebene_1" xmlns="http://www.w3.org/2000/svg" xmlns:xlink="http://www.w3.org/1999/xlink" x="0px" y="0px"
	 width="1024px" height="1024px" viewBox="0 0 1024 1024" enable-background="new 0 0 1024 1024" xml:space="preserve">
<g>
	<g>
		<polygon fill="#084370" points="267.938,914.555 23.892,491.856 267.938,69.148 756.081,69.148 1000.108,491.856 756.081,914.555 
					"/>
		<polygon fill="#1C618C" points="23.951,491.754 296.591,121.896 755.461,69.147 756.081,69.148 267.938,69.148 23.892,491.856 		
			"/>
		<g>
			<polygon fill="#FFFFFF" stroke="#084370" stroke-width="11.5717" stroke-miterlimit="10" points="406.601,272.534 
				387.142,238.827 406.601,205.12 445.524,205.12 464.983,238.827 445.524,272.534 			"/>
			<polygon fill="#FFFFFF" stroke="#084370" stroke-width="11.5717" stroke-miterlimit="10" points="581.709,306.241 
				562.246,272.532 581.709,238.827 620.631,238.827 640.092,272.532 620.631,306.241 			"/>
			<polygon fill="#FFFFFF" stroke="#084370" stroke-width="11.5717" stroke-miterlimit="10" points="406.601,407.361 
				387.142,373.655 406.601,339.948 445.524,339.948 464.983,373.655 445.524,407.361 			"/>
			<polygon fill="#FFFFFF" stroke="#084370" stroke-width="11.5717" stroke-miterlimit="10" points="464.96,373.655 
				445.499,339.948 464.96,306.242 503.884,306.242 523.345,339.948 503.884,373.655 			"/>
			<polygon fill="#FFFFFF" stroke="#084370" stroke-width="11.5717" stroke-miterlimit="10" points="464.96,306.242 
				445.499,272.534 464.96,238.827 503.884,238.827 523.345,272.534 503.884,306.242 			"/>
			<polygon fill="#FFFFFF" stroke="#084370" stroke-width="11.5717" stroke-miterlimit="10" points="406.601,339.948 
				387.142,306.242 406.601,272.534 445.524,272.534 464.983,306.242 445.524,339.948 			"/>
			<polygon fill="#FFFFFF" stroke="#084370" stroke-width="11.5717" stroke-miterlimit="10" points="406.601,677.061 
				387.142,643.356 406.601,609.649 445.524,609.649 464.983,643.356 445.524,677.061 			"/>
			<polygon fill="#FFFFFF" stroke="#084370" stroke-width="11.5717" stroke-miterlimit="10" points="464.96,238.827 
				445.501,205.119 464.96,171.412 503.884,171.412 523.345,205.119 503.884,238.827 			"/>
			<polygon fill="#FFFFFF" stroke="#084370" stroke-width="11.5717" stroke-miterlimit="10" points="348.141,441.067 328.68,407.36 
				348.141,373.654 387.061,373.654 406.523,407.36 387.061,441.067 			"/>
			<polygon fill="#FFFFFF" stroke="#084370" stroke-width="11.5717" stroke-miterlimit="10" points="640.067,272.534 
				620.606,238.827 640.067,205.119 678.991,205.119 698.45,238.827 678.991,272.534 			"/>
			<polygon fill="#FFFFFF" stroke="#084370" stroke-width="11.5717" stroke-miterlimit="10" points="873.015,136.561 
				853.556,102.855 873.015,69.146 911.94,69.146 931.401,102.855 911.94,136.561 			"/>
			<polygon fill="#FFFFFF" stroke="#084370" stroke-width="11.5717" stroke-miterlimit="10" points="523.278,205.119 
				503.817,171.412 523.278,137.705 562.202,137.705 581.665,171.412 562.202,205.119 			"/>
			<polygon fill="#FFFFFF" stroke="#084370" stroke-width="11.5717" stroke-miterlimit="10" points="348.14,508.275 
				328.679,474.567 348.14,440.861 387.063,440.861 406.524,474.567 387.063,508.275 			"/>
			<polygon fill="#FFFFFF" stroke="#084370" stroke-width="11.5717" stroke-miterlimit="10" points="523.36,272.534 
				503.897,238.827 523.36,205.119 562.284,205.119 581.745,238.827 562.284,272.534 			"/>
			<polygon fill="#FFFFFF" stroke="#084370" stroke-width="11.5717" stroke-miterlimit="10" points="523.366,474.569 
				503.905,440.862 523.366,407.155 562.29,407.155 581.751,440.862 562.29,474.569 			"/>
			<polygon fill="#FFFFFF" stroke="#084370" stroke-width="11.5717" stroke-miterlimit="10" points="406.601,541.981 
				387.142,508.274 406.601,474.569 445.524,474.569 464.983,508.274 445.524,541.981 			"/>
			<polygon fill="#FFFFFF" stroke="#084370" stroke-width="11.5717" stroke-miterlimit="10" points="464.96,508.274 
				445.499,474.569 464.96,440.862 503.884,440.862 523.345,474.569 503.884,508.274 			"/>
			<polygon fill="#FFFFFF" stroke="#084370" stroke-width="11.5717" stroke-miterlimit="10" points="406.601,474.755 
				387.14,441.046 406.601,407.341 445.524,407.341 464.985,441.046 445.524,474.755 			"/>
			<polygon fill="#FFFFFF" stroke="#084370" stroke-width="11.5717" stroke-miterlimit="10" points="464.96,440.862 
				445.499,407.154 464.96,373.448 503.884,373.448 523.345,407.154 503.884,440.862 			"/>
			<polygon fill="#FFFFFF" stroke="#084370" stroke-width="11.5717" stroke-miterlimit="10" points="464.96,778.311 
				445.501,744.604 464.96,710.895 503.884,710.895 523.345,744.604 503.884,778.311 			"/>
			<polygon fill="#FFFFFF" stroke="#084370" stroke-width="11.5717" stroke-miterlimit="10" points="464.96,710.895 445.501,677.19 
				464.96,643.483 503.884,643.483 523.345,677.19 503.884,710.895 			"/>
			<polygon fill="#FFFFFF" stroke="#084370" stroke-width="11.5717" stroke-miterlimit="10" points="406.601,812.145 
				387.142,778.438 406.601,744.731 445.524,744.731 464.983,778.438 445.524,812.145 			"/>
			<polygon fill="#FFFFFF" stroke="#084370" stroke-width="11.5717" stroke-miterlimit="10" points="406.601,744.731 
				387.142,711.026 406.601,677.315 445.524,677.315 464.983,711.026 445.524,744.731 			"/>
			<polygon fill="#FFFFFF" stroke="#084370" stroke-width="11.5717" stroke-miterlimit="10" points="406.601,609.833 
				387.142,576.126 406.601,542.421 445.524,542.421 464.985,576.126 445.524,609.833 			"/>
			<polygon fill="#FFFFFF" stroke="#084370" stroke-width="11.5717" stroke-miterlimit="10" points="523.278,541.981 
				503.817,508.274 523.278,474.567 562.202,474.567 581.663,508.274 562.202,541.981 			"/>
			<polygon fill="#FFFFFF" stroke="#084370" stroke-width="11.5717" stroke-miterlimit="10" points="464.96,643.358 
				445.499,609.651 464.96,575.944 503.884,575.944 523.345,609.651 503.884,643.358 			"/>
			<polygon fill="#FFFFFF" stroke="#084370" stroke-width="11.5717" stroke-miterlimit="10" points="464.96,575.944 
				445.499,542.237 464.96,508.53 503.884,508.53 523.345,542.237 503.884,575.944 			"/>
			<polygon fill="#FFFFFF" stroke="#084370" stroke-width="11.5717" stroke-miterlimit="10" points="464.96,845.979 
				445.501,812.274 464.96,778.565 503.884,778.565 523.345,812.274 503.884,845.979 			"/>
			<polygon fill="#FFFFFF" stroke="#084370" stroke-width="11.5717" stroke-miterlimit="10" points="581.708,238.827 
				562.245,205.119 581.708,171.412 620.63,171.412 640.093,205.119 620.63,238.827 			"/>
		</g>
	</g>
	<polyline fill="#0F2F48" points="756.081,914.551 267.938,914.551 23.892,491.851 23.892,534.625 267.938,957.324 756.081,957.324 
		1000.108,534.625 1000.108,491.851 756.081,914.551 	"/>
</g>
</svg>
