<?xml version="1.0" encoding="utf-8"?>
<!-- Generator: Adobe Illustrator 16.0.0, SVG Export Plug-In . SVG Version: 6.00 Build 0)  -->
<!DOCTYPE svg PUBLIC "-//W3C//DTD SVG 1.1//EN" "http://www.w3.org/Graphics/SVG/1.1/DTD/svg11.dtd">
<svg version="1.1" id="Ebene_1" xmlns="http://www.w3.org/2000/svg" xmlns:xlink="http://www.w3.org/1999/xlink" x="0px" y="0px"
	 width="1024px" height="1024px" viewBox="0 0 1024 1024" enable-background="new 0 0 1024 1024" xml:space="preserve">
<g>
	<g>
		<polygon fill="none" stroke="#FFFFFF" stroke-width="11.5717" stroke-miterlimit="10" points="267.914,914.538 23.868,491.838 
			267.914,69.13 756.057,69.13 1000.084,491.838 756.057,914.538 		"/>
		<g>
			<polygon fill="#E41F15" stroke="#FFFFFF" stroke-width="11.5717" stroke-miterlimit="10" points="406.576,272.054 
				387.117,238.347 406.576,204.64 445.5,204.64 464.959,238.347 445.5,272.054 			"/>
			<polygon fill="#E41F15" stroke="#FFFFFF" stroke-width="11.5717" stroke-miterlimit="10" points="581.684,305.76 
				562.221,272.052 581.684,238.346 620.605,238.346 640.066,272.052 620.605,305.76 			"/>
			<polygon fill="#E41F15" stroke="#FFFFFF" stroke-width="11.5717" stroke-miterlimit="10" points="406.576,406.881 
				387.117,373.174 406.576,339.468 445.5,339.468 464.959,373.174 445.5,406.881 			"/>
			<polygon fill="#E41F15" stroke="#FFFFFF" stroke-width="11.5717" stroke-miterlimit="10" points="464.936,373.174 
				445.475,339.468 464.936,305.762 503.859,305.762 523.32,339.468 503.859,373.174 			"/>
			<polygon fill="#E41F15" stroke="#FFFFFF" stroke-width="11.5717" stroke-miterlimit="10" points="464.936,305.762 
				445.475,272.054 464.936,238.347 503.859,238.347 523.32,272.054 503.859,305.762 			"/>
			<polygon fill="#E41F15" stroke="#FFFFFF" stroke-width="11.5717" stroke-miterlimit="10" points="406.576,339.468 
				387.117,305.762 406.576,272.054 445.5,272.054 464.959,305.762 445.5,339.468 			"/>
			<polygon fill="#E41F15" stroke="#FFFFFF" stroke-width="11.5717" stroke-miterlimit="10" points="406.576,677.044 
				387.117,643.339 406.576,609.632 445.5,609.632 464.959,643.339 445.5,677.044 			"/>
			<polygon fill="#E41F15" stroke="#FFFFFF" stroke-width="11.5717" stroke-miterlimit="10" points="464.936,238.346 
				445.477,204.638 464.936,170.931 503.859,170.931 523.32,204.638 503.859,238.346 			"/>
			<polygon fill="#E41F15" stroke="#FFFFFF" stroke-width="11.5717" stroke-miterlimit="10" points="348.346,440.588 
				328.885,406.881 348.346,373.174 387.266,373.174 406.729,406.881 387.266,440.588 			"/>
			<polygon fill="#E41F15" stroke="#FFFFFF" stroke-width="11.5717" stroke-miterlimit="10" points="640.043,272.054 
				620.582,238.347 640.043,204.638 678.967,204.638 698.426,238.347 678.967,272.054 			"/>
			<polygon fill="#9D9D9C" stroke="#FFFFFF" stroke-width="11.5717" stroke-miterlimit="10" points="872.99,136.543 
				853.531,102.837 872.99,69.128 911.916,69.128 931.377,102.837 911.916,136.543 			"/>
			<polygon fill="#E41F15" stroke="#FFFFFF" stroke-width="11.5717" stroke-miterlimit="10" points="523.254,204.638 
				503.793,170.932 523.254,137.224 562.178,137.224 581.641,170.932 562.178,204.638 			"/>
			<polygon fill="#E41F15" stroke="#FFFFFF" stroke-width="11.5717" stroke-miterlimit="10" points="348.346,508.696 
				328.885,474.989 348.346,441.282 387.27,441.282 406.73,474.989 387.27,508.696 			"/>
			<polygon fill="#E41F15" stroke="#FFFFFF" stroke-width="11.5717" stroke-miterlimit="10" points="523.336,272.054 
				503.873,238.347 523.336,204.638 562.26,204.638 581.721,238.347 562.26,272.054 			"/>
			<polygon fill="#E41F15" stroke="#FFFFFF" stroke-width="11.5717" stroke-miterlimit="10" points="523.254,474.734 
				503.793,441.026 523.254,407.319 562.178,407.319 581.639,441.026 562.178,474.734 			"/>
			<polygon fill="#E41F15" stroke="#FFFFFF" stroke-width="11.5717" stroke-miterlimit="10" points="406.576,541.964 
				387.117,508.257 406.576,474.551 445.5,474.551 464.959,508.257 445.5,541.964 			"/>
			<polygon fill="#E41F15" stroke="#FFFFFF" stroke-width="11.5717" stroke-miterlimit="10" points="464.936,508.257 
				445.475,474.551 464.936,440.844 503.859,440.844 523.32,474.551 503.859,508.257 			"/>
			<polygon fill="#E41F15" stroke="#FFFFFF" stroke-width="11.5717" stroke-miterlimit="10" points="406.576,474.737 
				387.115,441.029 406.576,407.322 445.5,407.322 464.961,441.029 445.5,474.737 			"/>
			<polygon fill="#E41F15" stroke="#FFFFFF" stroke-width="11.5717" stroke-miterlimit="10" points="406.576,407.136 
				387.117,373.43 406.576,339.722 445.5,339.722 464.959,373.43 445.5,407.136 			"/>
			<polygon fill="#E41F15" stroke="#FFFFFF" stroke-width="11.5717" stroke-miterlimit="10" points="464.936,440.844 
				445.475,407.136 464.936,373.43 503.859,373.43 523.32,407.136 503.859,440.844 			"/>
			<polygon fill="#E41F15" stroke="#FFFFFF" stroke-width="11.5717" stroke-miterlimit="10" points="464.936,778.294 
				445.477,744.587 464.936,710.878 503.859,710.878 523.32,744.587 503.859,778.294 			"/>
			<polygon fill="#E41F15" stroke="#FFFFFF" stroke-width="11.5717" stroke-miterlimit="10" points="464.936,710.878 
				445.477,677.173 464.936,643.466 503.859,643.466 523.32,677.173 503.859,710.878 			"/>
			<polygon fill="#E41F15" stroke="#FFFFFF" stroke-width="11.5717" stroke-miterlimit="10" points="406.576,812.128 
				387.117,778.421 406.576,744.714 445.5,744.714 464.959,778.421 445.5,812.128 			"/>
			<polygon fill="#E41F15" stroke="#FFFFFF" stroke-width="11.5717" stroke-miterlimit="10" points="406.576,744.714 
				387.117,711.009 406.576,677.298 445.5,677.298 464.959,711.009 445.5,744.714 			"/>
			<polygon fill="#E41F15" stroke="#FFFFFF" stroke-width="11.5717" stroke-miterlimit="10" points="406.576,609.815 
				387.117,576.108 406.576,542.403 445.5,542.403 464.961,576.108 445.5,609.815 			"/>
			<polygon fill="#E41F15" stroke="#FFFFFF" stroke-width="11.5717" stroke-miterlimit="10" points="523.254,542.403 
				503.793,508.695 523.254,474.989 562.178,474.989 581.639,508.695 562.178,542.403 			"/>
			<polygon fill="#E41F15" stroke="#FFFFFF" stroke-width="11.5717" stroke-miterlimit="10" points="464.936,643.341 
				445.475,609.634 464.936,575.926 503.859,575.926 523.32,609.634 503.859,643.341 			"/>
			<polygon fill="#E41F15" stroke="#FFFFFF" stroke-width="11.5717" stroke-miterlimit="10" points="464.936,575.926 
				445.475,542.219 464.936,508.513 503.859,508.513 523.32,542.219 503.859,575.926 			"/>
			<polygon fill="#E41F15" stroke="#FFFFFF" stroke-width="11.5717" stroke-miterlimit="10" points="464.936,845.962 
				445.477,812.257 464.936,778.548 503.859,778.548 523.32,812.257 503.859,845.962 			"/>
			<polygon fill="#E41F15" stroke="#FFFFFF" stroke-width="11.5717" stroke-miterlimit="10" points="581.684,238.346 
				562.221,204.638 581.684,170.931 620.605,170.931 640.068,204.638 620.605,238.346 			"/>
		</g>
	</g>
	<rect x="267.914" y="914.538" fill="#981915" width="488.143" height="40.334"/>
	<polygon fill="#981915" points="1000.133,531.997 756.057,954.872 756.057,914.538 1000.133,491.664 	"/>
	<polygon fill="#981915" points="267.914,954.872 23.868,532.171 23.868,491.838 267.914,914.538 	"/>
	<polygon fill="#E9CEC3" points="991.715,506.341 756.057,98.13 267.914,98.13 32.24,506.338 23.868,491.838 267.914,69.13 
		756.057,69.13 1000.084,491.838 	"/>
	<polygon fill="#E41F15" points="25.6,494.838 267.914,70.13 756.057,70.13 998.348,494.834 1000.084,491.838 756.057,69.13 
		267.914,69.13 23.868,491.838 	"/>
	<polygon fill="#E41F15" points="26.747,492.825 267.914,910.538 756.057,910.538 998.93,489.838 1000.084,491.838 756.057,914.538 
		267.914,914.538 23.868,491.838 	"/>
</g>
</svg>
