<?xml version="1.0" encoding="utf-8"?>
<!-- Generator: Adobe Illustrator 16.0.0, SVG Export Plug-In . SVG Version: 6.00 Build 0)  -->
<!DOCTYPE svg PUBLIC "-//W3C//DTD SVG 1.1//EN" "http://www.w3.org/Graphics/SVG/1.1/DTD/svg11.dtd">
<svg version="1.1" id="Ebene_1" xmlns="http://www.w3.org/2000/svg" xmlns:xlink="http://www.w3.org/1999/xlink" x="0px" y="0px"
	 width="1024px" height="1024px" viewBox="0 0 1024 1024" enable-background="new 0 0 1024 1024" xml:space="preserve">
<g>
	<g>
		<polygon fill="#1D78BD" points="-2386.822,-237.215 -2630.869,-659.914 -2386.822,-1082.622 -1898.68,-1082.622 
			-1654.652,-659.914 -1898.68,-237.215 		"/>
		<polygon fill="#074370" points="-2630.869,-617.141 -2386.822,-194.441 -1898.68,-194.441 -1654.652,-617.141 -1654.652,-659.914 
			-1898.68,-237.215 -2386.822,-237.215 -2630.869,-659.914 		"/>
		<g>
			<polygon fill="#FFFFFF" stroke="#1D78BD" stroke-width="11.5717" stroke-miterlimit="10" points="-2248.16,-879.236 
				-2267.619,-912.943 -2248.16,-946.65 -2209.236,-946.65 -2189.777,-912.943 -2209.236,-879.236 			"/>
			<polygon fill="#FFFFFF" stroke="#1D78BD" stroke-width="11.5717" stroke-miterlimit="10" points="-2014.692,-946.651 
				-2034.155,-980.36 -2014.692,-1014.065 -1975.771,-1014.065 -1956.31,-980.36 -1975.771,-946.651 			"/>
			<polygon fill="#FFFFFF" stroke="#1D78BD" stroke-width="11.5717" stroke-miterlimit="10" points="-2248.16,-744.409 
				-2267.619,-778.115 -2248.16,-811.822 -2209.236,-811.822 -2189.777,-778.115 -2209.236,-744.409 			"/>
			<polygon fill="#FFFFFF" stroke="#1D78BD" stroke-width="11.5717" stroke-miterlimit="10" points="-2189.801,-778.115 
				-2209.262,-811.822 -2189.801,-845.528 -2150.877,-845.528 -2131.416,-811.822 -2150.877,-778.115 			"/>
			<polygon fill="#FFFFFF" stroke="#1D78BD" stroke-width="11.5717" stroke-miterlimit="10" points="-2189.801,-845.528 
				-2209.262,-879.236 -2189.801,-912.943 -2150.877,-912.943 -2131.416,-879.236 -2150.877,-845.528 			"/>
			<polygon fill="#FFFFFF" stroke="#1D78BD" stroke-width="11.5717" stroke-miterlimit="10" points="-2248.16,-811.822 
				-2267.619,-845.528 -2248.16,-879.236 -2209.236,-879.236 -2189.777,-845.528 -2209.236,-811.822 			"/>
			<polygon fill="#FFFFFF" stroke="#1D78BD" stroke-width="11.5717" stroke-miterlimit="10" points="-2248.16,-474.709 
				-2267.619,-508.414 -2248.16,-542.121 -2209.236,-542.121 -2189.777,-508.414 -2209.236,-474.709 			"/>
			<polygon fill="#FFFFFF" stroke="#1D78BD" stroke-width="11.5717" stroke-miterlimit="10" points="-2189.801,-912.943 
				-2209.26,-946.651 -2189.801,-980.358 -2150.877,-980.358 -2131.416,-946.651 -2150.877,-912.943 			"/>
			<polygon fill="#FFFFFF" stroke="#1D78BD" stroke-width="11.5717" stroke-miterlimit="10" points="-2072.997,-710.906 
				-2092.458,-744.613 -2072.997,-778.319 -2034.077,-778.319 -2014.614,-744.613 -2034.077,-710.906 			"/>
			<polygon fill="#FFFFFF" stroke="#1D78BD" stroke-width="11.5717" stroke-miterlimit="10" points="-2306.62,-710.703 
				-2326.081,-744.41 -2306.62,-778.116 -2267.7,-778.116 -2248.237,-744.41 -2267.7,-710.703 			"/>
			<polygon fill="#FFFFFF" stroke="#1D78BD" stroke-width="11.5717" stroke-miterlimit="10" points="-2364.996,-676.996 
				-2384.457,-710.703 -2364.996,-744.409 -2326.076,-744.409 -2306.613,-710.703 -2326.076,-676.996 			"/>
			<polygon fill="#FFFFFF" stroke="#1D78BD" stroke-width="11.5717" stroke-miterlimit="10" points="-2014.693,-879.236 
				-2034.154,-912.943 -2014.693,-946.651 -1975.77,-946.651 -1956.311,-912.943 -1975.77,-879.236 			"/>
			<polygon fill="#FFFFFF" stroke="#1D78BD" stroke-width="11.5717" stroke-miterlimit="10" points="-1781.746,-1015.209 
				-1801.205,-1048.915 -1781.746,-1082.624 -1742.82,-1082.624 -1723.359,-1048.915 -1742.82,-1015.209 			"/>
			<polygon fill="#FFFFFF" stroke="#1D78BD" stroke-width="11.5717" stroke-miterlimit="10" points="-2131.482,-946.651 
				-2150.943,-980.358 -2131.482,-1014.065 -2092.559,-1014.065 -2073.096,-980.358 -2092.559,-946.651 			"/>
			<polygon fill="#FFFFFF" stroke="#1D78BD" stroke-width="11.5717" stroke-miterlimit="10" points="-2364.997,-744.409 
				-2384.458,-778.117 -2364.997,-811.823 -2326.073,-811.823 -2306.612,-778.117 -2326.073,-744.409 			"/>
			<polygon fill="#FFFFFF" stroke="#1D78BD" stroke-width="11.5717" stroke-miterlimit="10" points="-2131.4,-879.236 
				-2150.863,-912.943 -2131.4,-946.651 -2092.477,-946.651 -2073.016,-912.943 -2092.477,-879.236 			"/>
			<polygon fill="#FFFFFF" stroke="#1D78BD" stroke-width="11.5717" stroke-miterlimit="10" points="-2131.395,-677.201 
				-2150.855,-710.908 -2131.395,-744.615 -2092.471,-744.615 -2073.01,-710.908 -2092.471,-677.201 			"/>
			<polygon fill="#FFFFFF" stroke="#1D78BD" stroke-width="11.5717" stroke-miterlimit="10" points="-2248.16,-609.789 
				-2267.619,-643.496 -2248.16,-677.201 -2209.236,-677.201 -2189.777,-643.496 -2209.236,-609.789 			"/>
			<polygon fill="#FFFFFF" stroke="#1D78BD" stroke-width="11.5717" stroke-miterlimit="10" points="-2189.801,-643.496 
				-2209.262,-677.201 -2189.801,-710.908 -2150.877,-710.908 -2131.416,-677.201 -2150.877,-643.496 			"/>
			<polygon fill="#FFFFFF" stroke="#1D78BD" stroke-width="11.5717" stroke-miterlimit="10" points="-2248.16,-677.016 
				-2267.621,-710.725 -2248.16,-744.43 -2209.236,-744.43 -2189.775,-710.725 -2209.236,-677.016 			"/>
			<polygon fill="#FFFFFF" stroke="#1D78BD" stroke-width="11.5717" stroke-miterlimit="10" points="-2189.801,-710.908 
				-2209.262,-744.616 -2189.801,-778.322 -2150.877,-778.322 -2131.416,-744.616 -2150.877,-710.908 			"/>
			<polygon fill="#FFFFFF" stroke="#1D78BD" stroke-width="11.5717" stroke-miterlimit="10" points="-2189.801,-373.459 
				-2209.26,-407.166 -2189.801,-440.875 -2150.877,-440.875 -2131.416,-407.166 -2150.877,-373.459 			"/>
			<polygon fill="#FFFFFF" stroke="#1D78BD" stroke-width="11.5717" stroke-miterlimit="10" points="-2189.801,-440.875 
				-2209.26,-474.58 -2189.801,-508.287 -2150.877,-508.287 -2131.416,-474.58 -2150.877,-440.875 			"/>
			<polygon fill="#FFFFFF" stroke="#1D78BD" stroke-width="11.5717" stroke-miterlimit="10" points="-2248.16,-339.625 
				-2267.619,-373.332 -2248.16,-407.039 -2209.236,-407.039 -2189.777,-373.332 -2209.236,-339.625 			"/>
			<polygon fill="#FFFFFF" stroke="#1D78BD" stroke-width="11.5717" stroke-miterlimit="10" points="-2248.16,-407.039 
				-2267.619,-440.744 -2248.16,-474.455 -2209.236,-474.455 -2189.777,-440.744 -2209.236,-407.039 			"/>
			<polygon fill="#FFFFFF" stroke="#1D78BD" stroke-width="11.5717" stroke-miterlimit="10" points="-2248.16,-541.938 
				-2267.619,-575.645 -2248.16,-609.35 -2209.236,-609.35 -2189.775,-575.645 -2209.236,-541.938 			"/>
			<polygon fill="#FFFFFF" stroke="#1D78BD" stroke-width="11.5717" stroke-miterlimit="10" points="-2072.998,-643.492 
				-2092.459,-677.199 -2072.998,-710.906 -2034.074,-710.906 -2014.613,-677.199 -2034.074,-643.492 			"/>
			<polygon fill="#FFFFFF" stroke="#1D78BD" stroke-width="11.5717" stroke-miterlimit="10" points="-2131.482,-609.789 
				-2150.943,-643.496 -2131.482,-677.203 -2092.559,-677.203 -2073.098,-643.496 -2092.559,-609.789 			"/>
			<polygon fill="#FFFFFF" stroke="#1D78BD" stroke-width="11.5717" stroke-miterlimit="10" points="-2189.801,-508.412 
				-2209.262,-542.119 -2189.801,-575.826 -2150.877,-575.826 -2131.416,-542.119 -2150.877,-508.412 			"/>
			<polygon fill="#FFFFFF" stroke="#1D78BD" stroke-width="11.5717" stroke-miterlimit="10" points="-2189.801,-575.826 
				-2209.262,-609.533 -2189.801,-643.24 -2150.877,-643.24 -2131.416,-609.533 -2150.877,-575.826 			"/>
			<polygon fill="#FFFFFF" stroke="#1D78BD" stroke-width="11.5717" stroke-miterlimit="10" points="-2189.801,-305.791 
				-2209.26,-339.496 -2189.801,-373.205 -2150.877,-373.205 -2131.416,-339.496 -2150.877,-305.791 			"/>
			<polygon fill="#FFFFFF" stroke="#1D78BD" stroke-width="11.5717" stroke-miterlimit="10" points="-2073.053,-912.943 
				-2092.516,-946.651 -2073.053,-980.358 -2034.131,-980.358 -2014.668,-946.651 -2034.131,-912.943 			"/>
		</g>
	</g>
</g>
<g>
	<g>
		<polygon fill="#074370" points="-2386.202,914.556 -2630.249,491.856 -2386.202,69.148 -1898.06,69.148 -1654.032,491.856 
			-1898.06,914.556 		"/>
		<g>
			<polygon fill="#FFFFFF" stroke="#074370" stroke-width="11.5717" stroke-miterlimit="10" points="-2247.54,272.534 
				-2266.999,238.827 -2247.54,205.12 -2208.616,205.12 -2189.157,238.827 -2208.616,272.534 			"/>
			<polygon fill="#FFFFFF" stroke="#074370" stroke-width="11.5717" stroke-miterlimit="10" points="-2072.432,306.241 
				-2091.895,272.532 -2072.432,238.827 -2033.51,238.827 -2014.049,272.532 -2033.51,306.241 			"/>
			<polygon fill="#FFFFFF" stroke="#074370" stroke-width="11.5717" stroke-miterlimit="10" points="-2247.54,407.361 
				-2266.999,373.655 -2247.54,339.948 -2208.616,339.948 -2189.157,373.655 -2208.616,407.361 			"/>
			<polygon fill="#FFFFFF" stroke="#074370" stroke-width="11.5717" stroke-miterlimit="10" points="-2189.181,373.655 
				-2208.642,339.948 -2189.181,306.242 -2150.257,306.242 -2130.796,339.948 -2150.257,373.655 			"/>
			<polygon fill="#FFFFFF" stroke="#074370" stroke-width="11.5717" stroke-miterlimit="10" points="-2189.181,306.242 
				-2208.642,272.534 -2189.181,238.827 -2150.257,238.827 -2130.796,272.534 -2150.257,306.242 			"/>
			<polygon fill="#FFFFFF" stroke="#074370" stroke-width="11.5717" stroke-miterlimit="10" points="-2247.54,339.948 
				-2266.999,306.242 -2247.54,272.534 -2208.616,272.534 -2189.157,306.242 -2208.616,339.948 			"/>
			<polygon fill="#FFFFFF" stroke="#074370" stroke-width="11.5717" stroke-miterlimit="10" points="-2247.54,677.062 
				-2266.999,643.356 -2247.54,609.649 -2208.616,609.649 -2189.157,643.356 -2208.616,677.062 			"/>
			<polygon fill="#FFFFFF" stroke="#074370" stroke-width="11.5717" stroke-miterlimit="10" points="-2189.181,238.827 
				-2208.64,205.119 -2189.181,171.412 -2150.257,171.412 -2130.796,205.119 -2150.257,238.827 			"/>
			<polygon fill="#FFFFFF" stroke="#074370" stroke-width="11.5717" stroke-miterlimit="10" points="-2306,441.067 
				-2325.461,407.36 -2306,373.654 -2267.08,373.654 -2247.617,407.36 -2267.08,441.067 			"/>
			<polygon fill="#FFFFFF" stroke="#074370" stroke-width="11.5717" stroke-miterlimit="10" points="-2014.073,272.534 
				-2033.534,238.827 -2014.073,205.119 -1975.149,205.119 -1955.69,238.827 -1975.149,272.534 			"/>
			<polygon fill="#FFFFFF" stroke="#074370" stroke-width="11.5717" stroke-miterlimit="10" points="-1781.126,136.562 
				-1800.585,102.855 -1781.126,69.146 -1742.2,69.146 -1722.739,102.855 -1742.2,136.562 			"/>
			<polygon fill="#FFFFFF" stroke="#074370" stroke-width="11.5717" stroke-miterlimit="10" points="-2130.862,205.119 
				-2150.323,171.412 -2130.862,137.705 -2091.938,137.705 -2072.476,171.412 -2091.938,205.119 			"/>
			<polygon fill="#FFFFFF" stroke="#074370" stroke-width="11.5717" stroke-miterlimit="10" points="-2306.001,508.275 
				-2325.462,474.567 -2306.001,440.861 -2267.077,440.861 -2247.616,474.567 -2267.077,508.275 			"/>
			<polygon fill="#FFFFFF" stroke="#074370" stroke-width="11.5717" stroke-miterlimit="10" points="-2130.78,272.534 
				-2150.243,238.827 -2130.78,205.119 -2091.856,205.119 -2072.396,238.827 -2091.856,272.534 			"/>
			<polygon fill="#FFFFFF" stroke="#074370" stroke-width="11.5717" stroke-miterlimit="10" points="-2130.774,474.569 
				-2150.235,440.862 -2130.774,407.155 -2091.851,407.155 -2072.39,440.862 -2091.851,474.569 			"/>
			<polygon fill="#FFFFFF" stroke="#074370" stroke-width="11.5717" stroke-miterlimit="10" points="-2247.54,541.981 
				-2266.999,508.274 -2247.54,474.569 -2208.616,474.569 -2189.157,508.274 -2208.616,541.981 			"/>
			<polygon fill="#FFFFFF" stroke="#074370" stroke-width="11.5717" stroke-miterlimit="10" points="-2189.181,508.274 
				-2208.642,474.569 -2189.181,440.862 -2150.257,440.862 -2130.796,474.569 -2150.257,508.274 			"/>
			<polygon fill="#FFFFFF" stroke="#074370" stroke-width="11.5717" stroke-miterlimit="10" points="-2247.54,474.755 
				-2267.001,441.046 -2247.54,407.341 -2208.616,407.341 -2189.155,441.046 -2208.616,474.755 			"/>
			<polygon fill="#FFFFFF" stroke="#074370" stroke-width="11.5717" stroke-miterlimit="10" points="-2189.181,440.862 
				-2208.642,407.154 -2189.181,373.448 -2150.257,373.448 -2130.796,407.154 -2150.257,440.862 			"/>
			<polygon fill="#FFFFFF" stroke="#074370" stroke-width="11.5717" stroke-miterlimit="10" points="-2189.181,778.312 
				-2208.64,744.604 -2189.181,710.896 -2150.257,710.896 -2130.796,744.604 -2150.257,778.312 			"/>
			<polygon fill="#FFFFFF" stroke="#074370" stroke-width="11.5717" stroke-miterlimit="10" points="-2189.181,710.896 
				-2208.64,677.19 -2189.181,643.483 -2150.257,643.483 -2130.796,677.19 -2150.257,710.896 			"/>
			<polygon fill="#FFFFFF" stroke="#074370" stroke-width="11.5717" stroke-miterlimit="10" points="-2247.54,812.146 
				-2266.999,778.438 -2247.54,744.731 -2208.616,744.731 -2189.157,778.438 -2208.616,812.146 			"/>
			<polygon fill="#FFFFFF" stroke="#074370" stroke-width="11.5717" stroke-miterlimit="10" points="-2247.54,744.731 
				-2266.999,711.026 -2247.54,677.315 -2208.616,677.315 -2189.157,711.026 -2208.616,744.731 			"/>
			<polygon fill="#FFFFFF" stroke="#074370" stroke-width="11.5717" stroke-miterlimit="10" points="-2247.54,609.833 
				-2266.999,576.126 -2247.54,542.421 -2208.616,542.421 -2189.155,576.126 -2208.616,609.833 			"/>
			<polygon fill="#FFFFFF" stroke="#074370" stroke-width="11.5717" stroke-miterlimit="10" points="-2130.862,541.981 
				-2150.323,508.274 -2130.862,474.567 -2091.938,474.567 -2072.478,508.274 -2091.938,541.981 			"/>
			<polygon fill="#FFFFFF" stroke="#074370" stroke-width="11.5717" stroke-miterlimit="10" points="-2189.181,643.358 
				-2208.642,609.651 -2189.181,575.944 -2150.257,575.944 -2130.796,609.651 -2150.257,643.358 			"/>
			<polygon fill="#FFFFFF" stroke="#074370" stroke-width="11.5717" stroke-miterlimit="10" points="-2189.181,575.944 
				-2208.642,542.237 -2189.181,508.53 -2150.257,508.53 -2130.796,542.237 -2150.257,575.944 			"/>
			<polygon fill="#FFFFFF" stroke="#074370" stroke-width="11.5717" stroke-miterlimit="10" points="-2189.181,845.979 
				-2208.64,812.274 -2189.181,778.565 -2150.257,778.565 -2130.796,812.274 -2150.257,845.979 			"/>
			<polygon fill="#FFFFFF" stroke="#074370" stroke-width="11.5717" stroke-miterlimit="10" points="-2072.433,238.827 
				-2091.896,205.119 -2072.433,171.412 -2033.511,171.412 -2014.048,205.119 -2033.511,238.827 			"/>
		</g>
	</g>
	<polyline fill="#0E2F48" points="-1898.06,914.551 -2386.202,914.551 -2630.249,491.852 -2630.249,534.625 -2386.202,957.324 
		-1898.06,957.324 -1654.032,534.625 -1654.032,491.852 -1898.06,914.551 	"/>
</g>
<g>
	<g>
		<polygon fill="#074370" points="-988.062,914.556 -1232.108,491.856 -988.062,69.148 -499.919,69.148 -255.892,491.856 
			-499.919,914.556 		"/>
		<polygon fill="#1D618D" points="-1232.049,491.754 -959.409,121.896 -500.539,69.147 -499.919,69.148 -988.062,69.148 
			-1232.108,491.856 		"/>
		<g>
			<polygon fill="#FFFFFF" stroke="#074370" stroke-width="11.5717" stroke-miterlimit="10" points="-849.399,272.534 
				-868.858,238.827 -849.399,205.12 -810.476,205.12 -791.017,238.827 -810.476,272.534 			"/>
			<polygon fill="#FFFFFF" stroke="#074370" stroke-width="11.5717" stroke-miterlimit="10" points="-674.291,306.241 
				-693.754,272.532 -674.291,238.827 -635.369,238.827 -615.908,272.532 -635.369,306.241 			"/>
			<polygon fill="#FFFFFF" stroke="#074370" stroke-width="11.5717" stroke-miterlimit="10" points="-849.399,407.361 
				-868.858,373.655 -849.399,339.948 -810.476,339.948 -791.017,373.655 -810.476,407.361 			"/>
			<polygon fill="#FFFFFF" stroke="#074370" stroke-width="11.5717" stroke-miterlimit="10" points="-791.04,373.655 
				-810.501,339.948 -791.04,306.242 -752.116,306.242 -732.655,339.948 -752.116,373.655 			"/>
			<polygon fill="#FFFFFF" stroke="#074370" stroke-width="11.5717" stroke-miterlimit="10" points="-791.04,306.242 
				-810.501,272.534 -791.04,238.827 -752.116,238.827 -732.655,272.534 -752.116,306.242 			"/>
			<polygon fill="#FFFFFF" stroke="#074370" stroke-width="11.5717" stroke-miterlimit="10" points="-849.399,339.948 
				-868.858,306.242 -849.399,272.534 -810.476,272.534 -791.017,306.242 -810.476,339.948 			"/>
			<polygon fill="#FFFFFF" stroke="#074370" stroke-width="11.5717" stroke-miterlimit="10" points="-849.399,677.062 
				-868.858,643.356 -849.399,609.649 -810.476,609.649 -791.017,643.356 -810.476,677.062 			"/>
			<polygon fill="#FFFFFF" stroke="#074370" stroke-width="11.5717" stroke-miterlimit="10" points="-791.04,238.827 
				-810.499,205.119 -791.04,171.412 -752.116,171.412 -732.655,205.119 -752.116,238.827 			"/>
			<polygon fill="#FFFFFF" stroke="#074370" stroke-width="11.5717" stroke-miterlimit="10" points="-907.859,441.067 
				-927.32,407.36 -907.859,373.654 -868.939,373.654 -849.477,407.36 -868.939,441.067 			"/>
			<polygon fill="#FFFFFF" stroke="#074370" stroke-width="11.5717" stroke-miterlimit="10" points="-615.933,272.534 
				-635.394,238.827 -615.933,205.119 -577.009,205.119 -557.55,238.827 -577.009,272.534 			"/>
			<polygon fill="#FFFFFF" stroke="#074370" stroke-width="11.5717" stroke-miterlimit="10" points="-382.985,136.562 
				-402.444,102.855 -382.985,69.146 -344.06,69.146 -324.599,102.855 -344.06,136.562 			"/>
			<polygon fill="#FFFFFF" stroke="#074370" stroke-width="11.5717" stroke-miterlimit="10" points="-732.722,205.119 
				-752.183,171.412 -732.722,137.705 -693.798,137.705 -674.335,171.412 -693.798,205.119 			"/>
			<polygon fill="#FFFFFF" stroke="#074370" stroke-width="11.5717" stroke-miterlimit="10" points="-907.86,508.275 
				-927.321,474.567 -907.86,440.861 -868.937,440.861 -849.476,474.567 -868.937,508.275 			"/>
			<polygon fill="#FFFFFF" stroke="#074370" stroke-width="11.5717" stroke-miterlimit="10" points="-732.64,272.534 
				-752.103,238.827 -732.64,205.119 -693.716,205.119 -674.255,238.827 -693.716,272.534 			"/>
			<polygon fill="#FFFFFF" stroke="#074370" stroke-width="11.5717" stroke-miterlimit="10" points="-732.634,474.569 
				-752.095,440.862 -732.634,407.155 -693.71,407.155 -674.249,440.862 -693.71,474.569 			"/>
			<polygon fill="#FFFFFF" stroke="#074370" stroke-width="11.5717" stroke-miterlimit="10" points="-849.399,541.981 
				-868.858,508.274 -849.399,474.569 -810.476,474.569 -791.017,508.274 -810.476,541.981 			"/>
			<polygon fill="#FFFFFF" stroke="#074370" stroke-width="11.5717" stroke-miterlimit="10" points="-791.04,508.274 
				-810.501,474.569 -791.04,440.862 -752.116,440.862 -732.655,474.569 -752.116,508.274 			"/>
			<polygon fill="#FFFFFF" stroke="#074370" stroke-width="11.5717" stroke-miterlimit="10" points="-849.399,474.755 
				-868.86,441.046 -849.399,407.341 -810.476,407.341 -791.015,441.046 -810.476,474.755 			"/>
			<polygon fill="#FFFFFF" stroke="#074370" stroke-width="11.5717" stroke-miterlimit="10" points="-791.04,440.862 
				-810.501,407.154 -791.04,373.448 -752.116,373.448 -732.655,407.154 -752.116,440.862 			"/>
			<polygon fill="#FFFFFF" stroke="#074370" stroke-width="11.5717" stroke-miterlimit="10" points="-791.04,778.312 
				-810.499,744.604 -791.04,710.896 -752.116,710.896 -732.655,744.604 -752.116,778.312 			"/>
			<polygon fill="#FFFFFF" stroke="#074370" stroke-width="11.5717" stroke-miterlimit="10" points="-791.04,710.896 
				-810.499,677.19 -791.04,643.483 -752.116,643.483 -732.655,677.19 -752.116,710.896 			"/>
			<polygon fill="#FFFFFF" stroke="#074370" stroke-width="11.5717" stroke-miterlimit="10" points="-849.399,812.146 
				-868.858,778.438 -849.399,744.731 -810.476,744.731 -791.017,778.438 -810.476,812.146 			"/>
			<polygon fill="#FFFFFF" stroke="#074370" stroke-width="11.5717" stroke-miterlimit="10" points="-849.399,744.731 
				-868.858,711.026 -849.399,677.315 -810.476,677.315 -791.017,711.026 -810.476,744.731 			"/>
			<polygon fill="#FFFFFF" stroke="#074370" stroke-width="11.5717" stroke-miterlimit="10" points="-849.399,609.833 
				-868.858,576.126 -849.399,542.421 -810.476,542.421 -791.015,576.126 -810.476,609.833 			"/>
			<polygon fill="#FFFFFF" stroke="#074370" stroke-width="11.5717" stroke-miterlimit="10" points="-732.722,541.981 
				-752.183,508.274 -732.722,474.567 -693.798,474.567 -674.337,508.274 -693.798,541.981 			"/>
			<polygon fill="#FFFFFF" stroke="#074370" stroke-width="11.5717" stroke-miterlimit="10" points="-791.04,643.358 
				-810.501,609.651 -791.04,575.944 -752.116,575.944 -732.655,609.651 -752.116,643.358 			"/>
			<polygon fill="#FFFFFF" stroke="#074370" stroke-width="11.5717" stroke-miterlimit="10" points="-791.04,575.944 
				-810.501,542.237 -791.04,508.53 -752.116,508.53 -732.655,542.237 -752.116,575.944 			"/>
			<polygon fill="#FFFFFF" stroke="#074370" stroke-width="11.5717" stroke-miterlimit="10" points="-791.04,845.979 
				-810.499,812.274 -791.04,778.565 -752.116,778.565 -732.655,812.274 -752.116,845.979 			"/>
			<polygon fill="#FFFFFF" stroke="#074370" stroke-width="11.5717" stroke-miterlimit="10" points="-674.292,238.827 
				-693.755,205.119 -674.292,171.412 -635.37,171.412 -615.907,205.119 -635.37,238.827 			"/>
		</g>
	</g>
	<polyline fill="#0E2F48" points="-499.919,914.551 -988.062,914.551 -1232.108,491.852 -1232.108,534.625 -988.062,957.324 
		-499.919,957.324 -255.892,534.625 -255.892,491.852 -499.919,914.551 	"/>
</g>
<g>
	<g>
		<polygon fill="#1D78BD" points="2.667,-671.486 -234.68,-1082.622 -722.822,-1082.622 -960.204,-671.458 -960.204,-648.37 
			-722.822,-237.214 -234.68,-237.214 2.667,-648.342 		"/>
		<g>
			<polygon fill="#FFFFFF" stroke="#1D78BD" stroke-width="11.5717" stroke-miterlimit="10" points="-584.16,-879.236 
				-603.619,-912.943 -584.16,-946.65 -545.236,-946.65 -525.777,-912.943 -545.236,-879.236 			"/>
			<polygon fill="#FFFFFF" stroke="#1D78BD" stroke-width="11.5717" stroke-miterlimit="10" points="-350.692,-946.652 
				-370.155,-980.36 -350.692,-1014.066 -311.771,-1014.066 -292.31,-980.36 -311.771,-946.652 			"/>
			<polygon fill="#FFFFFF" stroke="#1D78BD" stroke-width="11.5717" stroke-miterlimit="10" points="-584.16,-744.409 
				-603.619,-778.116 -584.16,-811.822 -545.236,-811.822 -525.777,-778.116 -545.236,-744.409 			"/>
			<polygon fill="#FFFFFF" stroke="#1D78BD" stroke-width="11.5717" stroke-miterlimit="10" points="-525.801,-778.116 
				-545.262,-811.822 -525.801,-845.528 -486.877,-845.528 -467.416,-811.822 -486.877,-778.116 			"/>
			<polygon fill="#FFFFFF" stroke="#1D78BD" stroke-width="11.5717" stroke-miterlimit="10" points="-525.801,-845.528 
				-545.262,-879.236 -525.801,-912.943 -486.877,-912.943 -467.416,-879.236 -486.877,-845.528 			"/>
			<polygon fill="#FFFFFF" stroke="#1D78BD" stroke-width="11.5717" stroke-miterlimit="10" points="-584.16,-811.822 
				-603.619,-845.528 -584.16,-879.236 -545.236,-879.236 -525.777,-845.528 -545.236,-811.822 			"/>
			<polygon fill="#FFFFFF" stroke="#1D78BD" stroke-width="11.5717" stroke-miterlimit="10" points="-584.16,-474.708 
				-603.619,-508.413 -584.16,-542.12 -545.236,-542.12 -525.777,-508.413 -545.236,-474.708 			"/>
			<polygon fill="#FFFFFF" stroke="#1D78BD" stroke-width="11.5717" stroke-miterlimit="10" points="-525.801,-912.944 
				-545.26,-946.652 -525.801,-980.359 -486.877,-980.359 -467.416,-946.652 -486.877,-912.944 			"/>
			<polygon fill="#FFFFFF" stroke="#1D78BD" stroke-width="11.5717" stroke-miterlimit="10" points="-408.997,-710.905 
				-428.458,-744.613 -408.997,-778.319 -370.077,-778.319 -350.614,-744.613 -370.077,-710.905 			"/>
			<polygon fill="#FFFFFF" stroke="#1D78BD" stroke-width="11.5717" stroke-miterlimit="10" points="-642.62,-710.702 
				-662.081,-744.41 -642.62,-778.116 -603.7,-778.116 -584.237,-744.41 -603.7,-710.702 			"/>
			<polygon fill="#FFFFFF" stroke="#1D78BD" stroke-width="11.5717" stroke-miterlimit="10" points="-700.996,-676.995 
				-720.457,-710.703 -700.996,-744.409 -662.076,-744.409 -642.613,-710.703 -662.076,-676.995 			"/>
			<polygon fill="#FFFFFF" stroke="#1D78BD" stroke-width="11.5717" stroke-miterlimit="10" points="-350.693,-879.236 
				-370.154,-912.943 -350.693,-946.652 -311.77,-946.652 -292.311,-912.943 -311.77,-879.236 			"/>
			<polygon fill="#FFFFFF" stroke="#1D78BD" stroke-width="11.5717" stroke-miterlimit="10" points="-117.746,-1015.209 
				-137.205,-1048.916 -117.746,-1082.624 -78.82,-1082.624 -59.359,-1048.916 -78.82,-1015.209 			"/>
			<polygon fill="#FFFFFF" stroke="#1D78BD" stroke-width="11.5717" stroke-miterlimit="10" points="-467.482,-946.652 
				-486.943,-980.358 -467.482,-1014.066 -428.559,-1014.066 -409.096,-980.358 -428.559,-946.652 			"/>
			<polygon fill="#FFFFFF" stroke="#1D78BD" stroke-width="11.5717" stroke-miterlimit="10" points="-700.997,-744.409 
				-720.458,-778.117 -700.997,-811.823 -662.073,-811.823 -642.612,-778.117 -662.073,-744.409 			"/>
			<polygon fill="#FFFFFF" stroke="#1D78BD" stroke-width="11.5717" stroke-miterlimit="10" points="-467.4,-879.236 
				-486.863,-912.943 -467.4,-946.652 -428.477,-946.652 -409.016,-912.943 -428.477,-879.236 			"/>
			<polygon fill="#FFFFFF" stroke="#1D78BD" stroke-width="11.5717" stroke-miterlimit="10" points="-467.395,-677.201 
				-486.855,-710.909 -467.395,-744.616 -428.471,-744.616 -409.01,-710.909 -428.471,-677.201 			"/>
			<polygon fill="#FFFFFF" stroke="#1D78BD" stroke-width="11.5717" stroke-miterlimit="10" points="-584.16,-609.788 
				-603.619,-643.496 -584.16,-677.202 -545.236,-677.202 -525.777,-643.496 -545.236,-609.788 			"/>
			<polygon fill="#FFFFFF" stroke="#1D78BD" stroke-width="11.5717" stroke-miterlimit="10" points="-525.801,-643.496 
				-545.262,-677.202 -525.801,-710.908 -486.877,-710.908 -467.416,-677.202 -486.877,-643.496 			"/>
			<polygon fill="#FFFFFF" stroke="#1D78BD" stroke-width="11.5717" stroke-miterlimit="10" points="-584.16,-677.015 
				-603.621,-710.724 -584.16,-744.43 -545.236,-744.43 -525.775,-710.724 -545.236,-677.015 			"/>
			<polygon fill="#FFFFFF" stroke="#1D78BD" stroke-width="11.5717" stroke-miterlimit="10" points="-525.801,-710.908 
				-545.262,-744.616 -525.801,-778.322 -486.877,-778.322 -467.416,-744.616 -486.877,-710.908 			"/>
			<polygon fill="#FFFFFF" stroke="#1D78BD" stroke-width="11.5717" stroke-miterlimit="10" points="-525.801,-373.458 
				-545.26,-407.165 -525.801,-440.874 -486.877,-440.874 -467.416,-407.165 -486.877,-373.458 			"/>
			<polygon fill="#FFFFFF" stroke="#1D78BD" stroke-width="11.5717" stroke-miterlimit="10" points="-525.801,-440.874 
				-545.26,-474.579 -525.801,-508.286 -486.877,-508.286 -467.416,-474.579 -486.877,-440.874 			"/>
			<polygon fill="#FFFFFF" stroke="#1D78BD" stroke-width="11.5717" stroke-miterlimit="10" points="-584.16,-339.624 
				-603.619,-373.331 -584.16,-407.038 -545.236,-407.038 -525.777,-373.331 -545.236,-339.624 			"/>
			<polygon fill="#FFFFFF" stroke="#1D78BD" stroke-width="11.5717" stroke-miterlimit="10" points="-584.16,-407.038 
				-603.619,-440.743 -584.16,-474.454 -545.236,-474.454 -525.777,-440.743 -545.236,-407.038 			"/>
			<polygon fill="#FFFFFF" stroke="#1D78BD" stroke-width="11.5717" stroke-miterlimit="10" points="-584.16,-541.937 
				-603.619,-575.645 -584.16,-609.35 -545.236,-609.35 -525.775,-575.645 -545.236,-541.937 			"/>
			<polygon fill="#FFFFFF" stroke="#1D78BD" stroke-width="11.5717" stroke-miterlimit="10" points="-408.998,-643.491 
				-428.459,-677.199 -408.998,-710.905 -370.074,-710.905 -350.613,-677.199 -370.074,-643.491 			"/>
			<polygon fill="#FFFFFF" stroke="#1D78BD" stroke-width="11.5717" stroke-miterlimit="10" points="-467.482,-609.789 
				-486.943,-643.497 -467.482,-677.203 -428.559,-677.203 -409.098,-643.497 -428.559,-609.789 			"/>
			<polygon fill="#FFFFFF" stroke="#1D78BD" stroke-width="11.5717" stroke-miterlimit="10" points="-525.801,-508.411 
				-545.262,-542.118 -525.801,-575.827 -486.877,-575.827 -467.416,-542.118 -486.877,-508.411 			"/>
			<polygon fill="#FFFFFF" stroke="#1D78BD" stroke-width="11.5717" stroke-miterlimit="10" points="-525.801,-575.827 
				-545.262,-609.533 -525.801,-643.24 -486.877,-643.24 -467.416,-609.533 -486.877,-575.827 			"/>
			<polygon fill="#FFFFFF" stroke="#1D78BD" stroke-width="11.5717" stroke-miterlimit="10" points="-525.801,-305.79 
				-545.26,-339.495 -525.801,-373.204 -486.877,-373.204 -467.416,-339.495 -486.877,-305.79 			"/>
			<polygon fill="#FFFFFF" stroke="#1D78BD" stroke-width="11.5717" stroke-miterlimit="10" points="-409.053,-912.944 
				-428.516,-946.652 -409.053,-980.359 -370.131,-980.359 -350.668,-946.652 -370.131,-912.944 			"/>
		</g>
		<polygon fill="#FFFFFF" points="2.667,-659.914 -238.021,-243 -719.481,-243 -960.188,-659.914 -719.481,-1076.836 
			-238.021,-1076.836 2.667,-659.914 2.667,-683.059 -229.669,-1085.515 -231.339,-1088.408 -726.163,-1088.408 -960.204,-683.03 
			-960.204,-636.799 -727.833,-234.321 -726.163,-231.428 -231.339,-231.428 2.667,-636.77 		"/>
		<polygon fill="#074370" points="-234.68,-237.214 -722.822,-237.214 -960.204,-648.37 -960.204,-618.368 -722.822,-207.211 
			-234.68,-207.211 2.667,-618.34 2.667,-648.342 		"/>
	</g>
</g>
<g>
	<g>
		<polygon fill="#1D78BD" points="1544.821,-671.486 1307.475,-1082.622 819.332,-1082.622 581.95,-671.458 581.95,-648.37 
			819.332,-237.214 1307.475,-237.214 1544.821,-648.342 		"/>
		<g>
			<polygon fill="#FFFFFF" stroke="#1D78BD" stroke-width="11.5717" stroke-miterlimit="10" points="957.994,-879.236 
				938.535,-912.943 957.994,-946.65 996.918,-946.65 1016.377,-912.943 996.918,-879.236 			"/>
			<polygon fill="#FFFFFF" stroke="#1D78BD" stroke-width="11.5717" stroke-miterlimit="10" points="1191.462,-946.652 
				1171.999,-980.36 1191.462,-1014.066 1230.384,-1014.066 1249.845,-980.36 1230.384,-946.652 			"/>
			<polygon fill="#FFFFFF" stroke="#1D78BD" stroke-width="11.5717" stroke-miterlimit="10" points="957.994,-744.409 
				938.535,-778.116 957.994,-811.822 996.918,-811.822 1016.377,-778.116 996.918,-744.409 			"/>
			<polygon fill="#FFFFFF" stroke="#1D78BD" stroke-width="11.5717" stroke-miterlimit="10" points="1016.354,-778.116 
				996.893,-811.822 1016.354,-845.528 1055.277,-845.528 1074.738,-811.822 1055.277,-778.116 			"/>
			<polygon fill="#FFFFFF" stroke="#1D78BD" stroke-width="11.5717" stroke-miterlimit="10" points="1016.354,-845.528 
				996.893,-879.236 1016.354,-912.943 1055.277,-912.943 1074.738,-879.236 1055.277,-845.528 			"/>
			<polygon fill="#FFFFFF" stroke="#1D78BD" stroke-width="11.5717" stroke-miterlimit="10" points="957.994,-811.822 
				938.535,-845.528 957.994,-879.236 996.918,-879.236 1016.377,-845.528 996.918,-811.822 			"/>
			<polygon fill="#FFFFFF" stroke="#1D78BD" stroke-width="11.5717" stroke-miterlimit="10" points="957.994,-474.708 
				938.535,-508.413 957.994,-542.12 996.918,-542.12 1016.377,-508.413 996.918,-474.708 			"/>
			<polygon fill="#FFFFFF" stroke="#1D78BD" stroke-width="11.5717" stroke-miterlimit="10" points="1016.354,-912.944 
				996.895,-946.652 1016.354,-980.359 1055.277,-980.359 1074.738,-946.652 1055.277,-912.944 			"/>
			<polygon fill="#FFFFFF" stroke="#1D78BD" stroke-width="11.5717" stroke-miterlimit="10" points="1133.157,-710.905 
				1113.696,-744.613 1133.157,-778.319 1172.077,-778.319 1191.54,-744.613 1172.077,-710.905 			"/>
			<polygon fill="#FFFFFF" stroke="#1D78BD" stroke-width="11.5717" stroke-miterlimit="10" points="899.534,-710.702 
				880.073,-744.41 899.534,-778.116 938.454,-778.116 957.917,-744.41 938.454,-710.702 			"/>
			<polygon fill="#FFFFFF" stroke="#1D78BD" stroke-width="11.5717" stroke-miterlimit="10" points="841.158,-676.995 
				821.697,-710.703 841.158,-744.409 880.078,-744.409 899.541,-710.703 880.078,-676.995 			"/>
			<polygon fill="#FFFFFF" stroke="#1D78BD" stroke-width="11.5717" stroke-miterlimit="10" points="1191.461,-879.236 
				1172,-912.943 1191.461,-946.652 1230.385,-946.652 1249.844,-912.943 1230.385,-879.236 			"/>
			<polygon fill="#FFFFFF" stroke="#1D78BD" stroke-width="11.5717" stroke-miterlimit="10" points="1424.408,-1015.209 
				1404.949,-1048.916 1424.408,-1082.624 1463.334,-1082.624 1482.795,-1048.916 1463.334,-1015.209 			"/>
			<polygon fill="#FFFFFF" stroke="#1D78BD" stroke-width="11.5717" stroke-miterlimit="10" points="1074.672,-946.652 
				1055.211,-980.358 1074.672,-1014.066 1113.596,-1014.066 1133.059,-980.358 1113.596,-946.652 			"/>
			<polygon fill="#FFFFFF" stroke="#1D78BD" stroke-width="11.5717" stroke-miterlimit="10" points="841.157,-744.409 
				821.696,-778.117 841.157,-811.823 880.081,-811.823 899.542,-778.117 880.081,-744.409 			"/>
			<polygon fill="#FFFFFF" stroke="#1D78BD" stroke-width="11.5717" stroke-miterlimit="10" points="1074.754,-879.236 
				1055.291,-912.943 1074.754,-946.652 1113.678,-946.652 1133.139,-912.943 1113.678,-879.236 			"/>
			<polygon fill="#FFFFFF" stroke="#1D78BD" stroke-width="11.5717" stroke-miterlimit="10" points="1074.76,-677.201 
				1055.299,-710.909 1074.76,-744.616 1113.684,-744.616 1133.145,-710.909 1113.684,-677.201 			"/>
			<polygon fill="#FFFFFF" stroke="#1D78BD" stroke-width="11.5717" stroke-miterlimit="10" points="957.994,-609.788 
				938.535,-643.496 957.994,-677.202 996.918,-677.202 1016.377,-643.496 996.918,-609.788 			"/>
			<polygon fill="#FFFFFF" stroke="#1D78BD" stroke-width="11.5717" stroke-miterlimit="10" points="1016.354,-643.496 
				996.893,-677.202 1016.354,-710.908 1055.277,-710.908 1074.738,-677.202 1055.277,-643.496 			"/>
			<polygon fill="#FFFFFF" stroke="#1D78BD" stroke-width="11.5717" stroke-miterlimit="10" points="957.994,-677.015 
				938.533,-710.724 957.994,-744.43 996.918,-744.43 1016.379,-710.724 996.918,-677.015 			"/>
			<polygon fill="#FFFFFF" stroke="#1D78BD" stroke-width="11.5717" stroke-miterlimit="10" points="1016.354,-710.908 
				996.893,-744.616 1016.354,-778.322 1055.277,-778.322 1074.738,-744.616 1055.277,-710.908 			"/>
			<polygon fill="#FFFFFF" stroke="#1D78BD" stroke-width="11.5717" stroke-miterlimit="10" points="1016.354,-373.458 
				996.895,-407.165 1016.354,-440.874 1055.277,-440.874 1074.738,-407.165 1055.277,-373.458 			"/>
			<polygon fill="#FFFFFF" stroke="#1D78BD" stroke-width="11.5717" stroke-miterlimit="10" points="1016.354,-440.874 
				996.895,-474.579 1016.354,-508.286 1055.277,-508.286 1074.738,-474.579 1055.277,-440.874 			"/>
			<polygon fill="#FFFFFF" stroke="#1D78BD" stroke-width="11.5717" stroke-miterlimit="10" points="957.994,-339.624 
				938.535,-373.331 957.994,-407.038 996.918,-407.038 1016.377,-373.331 996.918,-339.624 			"/>
			<polygon fill="#FFFFFF" stroke="#1D78BD" stroke-width="11.5717" stroke-miterlimit="10" points="957.994,-407.038 
				938.535,-440.743 957.994,-474.454 996.918,-474.454 1016.377,-440.743 996.918,-407.038 			"/>
			<polygon fill="#FFFFFF" stroke="#1D78BD" stroke-width="11.5717" stroke-miterlimit="10" points="957.994,-541.937 
				938.535,-575.645 957.994,-609.35 996.918,-609.35 1016.379,-575.645 996.918,-541.937 			"/>
			<polygon fill="#FFFFFF" stroke="#1D78BD" stroke-width="11.5717" stroke-miterlimit="10" points="1133.156,-643.491 
				1113.695,-677.199 1133.156,-710.905 1172.08,-710.905 1191.541,-677.199 1172.08,-643.491 			"/>
			<polygon fill="#FFFFFF" stroke="#1D78BD" stroke-width="11.5717" stroke-miterlimit="10" points="1074.672,-609.789 
				1055.211,-643.497 1074.672,-677.203 1113.596,-677.203 1133.057,-643.497 1113.596,-609.789 			"/>
			<polygon fill="#FFFFFF" stroke="#1D78BD" stroke-width="11.5717" stroke-miterlimit="10" points="1016.354,-508.411 
				996.893,-542.118 1016.354,-575.827 1055.277,-575.827 1074.738,-542.118 1055.277,-508.411 			"/>
			<polygon fill="#FFFFFF" stroke="#1D78BD" stroke-width="11.5717" stroke-miterlimit="10" points="1016.354,-575.827 
				996.893,-609.533 1016.354,-643.24 1055.277,-643.24 1074.738,-609.533 1055.277,-575.827 			"/>
			<polygon fill="#FFFFFF" stroke="#1D78BD" stroke-width="11.5717" stroke-miterlimit="10" points="1016.354,-305.79 
				996.895,-339.495 1016.354,-373.204 1055.277,-373.204 1074.738,-339.495 1055.277,-305.79 			"/>
			<polygon fill="#FFFFFF" stroke="#1D78BD" stroke-width="11.5717" stroke-miterlimit="10" points="1133.102,-912.944 
				1113.639,-946.652 1133.102,-980.359 1172.023,-980.359 1191.486,-946.652 1172.023,-912.944 			"/>
		</g>
		<polygon fill="#074370" points="1307.475,-237.214 819.332,-237.214 581.95,-648.37 581.95,-618.368 819.332,-207.211 
			1307.475,-207.211 1544.821,-618.34 1544.821,-648.342 		"/>
	</g>
</g>
<g>
	<g>
		<polygon fill="none" stroke="#FFFFFF" stroke-width="11.5717" stroke-miterlimit="10" points="277.843,909.813 33.797,487.113 
			277.843,64.404 765.985,64.404 1010.013,487.113 765.985,909.813 		"/>
		<g>
			<polygon fill="#E4221A" stroke="#FFFFFF" stroke-width="11.5717" stroke-miterlimit="10" points="416.505,267.329 
				397.046,233.622 416.505,199.915 455.429,199.915 474.888,233.622 455.429,267.329 			"/>
			<polygon fill="#E4221A" stroke="#FFFFFF" stroke-width="11.5717" stroke-miterlimit="10" points="591.612,301.035 
				572.149,267.327 591.612,233.621 630.533,233.621 649.995,267.327 630.533,301.035 			"/>
			<polygon fill="#E4221A" stroke="#FFFFFF" stroke-width="11.5717" stroke-miterlimit="10" points="416.505,402.156 
				397.046,368.449 416.505,334.743 455.429,334.743 474.888,368.449 455.429,402.156 			"/>
			<polygon fill="#E4221A" stroke="#FFFFFF" stroke-width="11.5717" stroke-miterlimit="10" points="474.865,368.449 
				455.403,334.743 474.865,301.037 513.788,301.037 533.249,334.743 513.788,368.449 			"/>
			<polygon fill="#E4221A" stroke="#FFFFFF" stroke-width="11.5717" stroke-miterlimit="10" points="474.865,301.037 
				455.403,267.329 474.865,233.622 513.788,233.622 533.249,267.329 513.788,301.037 			"/>
			<polygon fill="#E4221A" stroke="#FFFFFF" stroke-width="11.5717" stroke-miterlimit="10" points="416.505,334.743 
				397.046,301.037 416.505,267.329 455.429,267.329 474.888,301.037 455.429,334.743 			"/>
			<polygon fill="#E4221A" stroke="#FFFFFF" stroke-width="11.5717" stroke-miterlimit="10" points="416.505,672.319 
				397.046,638.614 416.505,604.907 455.429,604.907 474.888,638.614 455.429,672.319 			"/>
			<polygon fill="#E4221A" stroke="#FFFFFF" stroke-width="11.5717" stroke-miterlimit="10" points="474.865,233.621 
				455.405,199.913 474.865,166.206 513.788,166.206 533.249,199.913 513.788,233.621 			"/>
			<polygon fill="#E4221A" stroke="#FFFFFF" stroke-width="11.5717" stroke-miterlimit="10" points="358.274,435.863 
				338.813,402.156 358.274,368.449 397.194,368.449 416.657,402.156 397.194,435.863 			"/>
			<polygon fill="#E4221A" stroke="#FFFFFF" stroke-width="11.5717" stroke-miterlimit="10" points="649.972,267.329 
				630.511,233.622 649.972,199.913 688.896,199.913 708.354,233.622 688.896,267.329 			"/>
			<polygon fill="#9E9D9C" stroke="#FFFFFF" stroke-width="11.5717" stroke-miterlimit="10" points="882.919,131.817 863.46,98.111 
				882.919,64.402 921.845,64.402 941.306,98.111 921.845,131.817 			"/>
			<polygon fill="#E4221A" stroke="#FFFFFF" stroke-width="11.5717" stroke-miterlimit="10" points="533.183,199.913 
				513.722,166.207 533.183,132.499 572.106,132.499 591.569,166.207 572.106,199.913 			"/>
			<polygon fill="#E4221A" stroke="#FFFFFF" stroke-width="11.5717" stroke-miterlimit="10" points="358.274,503.971 
				338.813,470.264 358.274,436.557 397.198,436.557 416.659,470.264 397.198,503.971 			"/>
			<polygon fill="#E4221A" stroke="#FFFFFF" stroke-width="11.5717" stroke-miterlimit="10" points="533.265,267.329 
				513.802,233.622 533.265,199.913 572.188,199.913 591.649,233.622 572.188,267.329 			"/>
			<polygon fill="#E4221A" stroke="#FFFFFF" stroke-width="11.5717" stroke-miterlimit="10" points="533.183,470.009 
				513.722,436.301 533.183,402.594 572.106,402.594 591.567,436.301 572.106,470.009 			"/>
			<polygon fill="#E4221A" stroke="#FFFFFF" stroke-width="11.5717" stroke-miterlimit="10" points="416.505,537.239 
				397.046,503.532 416.505,469.826 455.429,469.826 474.888,503.532 455.429,537.239 			"/>
			<polygon fill="#E4221A" stroke="#FFFFFF" stroke-width="11.5717" stroke-miterlimit="10" points="474.865,503.532 
				455.403,469.826 474.865,436.119 513.788,436.119 533.249,469.826 513.788,503.532 			"/>
			<polygon fill="#E4221A" stroke="#FFFFFF" stroke-width="11.5717" stroke-miterlimit="10" points="416.505,470.012 
				397.044,436.304 416.505,402.597 455.429,402.597 474.89,436.304 455.429,470.012 			"/>
			<polygon fill="#E4221A" stroke="#FFFFFF" stroke-width="11.5717" stroke-miterlimit="10" points="416.505,402.411 
				397.046,368.705 416.505,334.997 455.429,334.997 474.888,368.705 455.429,402.411 			"/>
			<polygon fill="#E4221A" stroke="#FFFFFF" stroke-width="11.5717" stroke-miterlimit="10" points="474.865,436.119 
				455.403,402.411 474.865,368.705 513.788,368.705 533.249,402.411 513.788,436.119 			"/>
			<polygon fill="#E4221A" stroke="#FFFFFF" stroke-width="11.5717" stroke-miterlimit="10" points="474.865,773.569 
				455.405,739.862 474.865,706.153 513.788,706.153 533.249,739.862 513.788,773.569 			"/>
			<polygon fill="#E4221A" stroke="#FFFFFF" stroke-width="11.5717" stroke-miterlimit="10" points="474.865,706.153 
				455.405,672.448 474.865,638.741 513.788,638.741 533.249,672.448 513.788,706.153 			"/>
			<polygon fill="#E4221A" stroke="#FFFFFF" stroke-width="11.5717" stroke-miterlimit="10" points="416.505,807.403 
				397.046,773.696 416.505,739.989 455.429,739.989 474.888,773.696 455.429,807.403 			"/>
			<polygon fill="#E4221A" stroke="#FFFFFF" stroke-width="11.5717" stroke-miterlimit="10" points="416.505,739.989 
				397.046,706.284 416.505,672.573 455.429,672.573 474.888,706.284 455.429,739.989 			"/>
			<polygon fill="#E4221A" stroke="#FFFFFF" stroke-width="11.5717" stroke-miterlimit="10" points="416.505,605.09 
				397.046,571.383 416.505,537.678 455.429,537.678 474.89,571.383 455.429,605.09 			"/>
			<polygon fill="#E4221A" stroke="#FFFFFF" stroke-width="11.5717" stroke-miterlimit="10" points="533.183,537.678 
				513.722,503.97 533.183,470.264 572.106,470.264 591.567,503.97 572.106,537.678 			"/>
			<polygon fill="#E4221A" stroke="#FFFFFF" stroke-width="11.5717" stroke-miterlimit="10" points="474.865,638.616 
				455.403,604.909 474.865,571.201 513.788,571.201 533.249,604.909 513.788,638.616 			"/>
			<polygon fill="#E4221A" stroke="#FFFFFF" stroke-width="11.5717" stroke-miterlimit="10" points="474.865,571.201 
				455.403,537.494 474.865,503.788 513.788,503.788 533.249,537.494 513.788,571.201 			"/>
			<polygon fill="#E4221A" stroke="#FFFFFF" stroke-width="11.5717" stroke-miterlimit="10" points="474.865,841.237 
				455.405,807.532 474.865,773.823 513.788,773.823 533.249,807.532 513.788,841.237 			"/>
			<polygon fill="#E4221A" stroke="#FFFFFF" stroke-width="11.5717" stroke-miterlimit="10" points="591.612,233.621 
				572.149,199.913 591.612,166.206 630.533,166.206 649.997,199.913 630.533,233.621 			"/>
		</g>
	</g>
	<rect x="277.843" y="909.813" fill="#991918" width="488.143" height="40.334"/>
	<polygon fill="#991918" points="1010.062,527.271 765.985,950.146 765.985,909.813 1010.062,486.938 	"/>
	<polygon fill="#991918" points="277.843,950.146 33.797,527.446 33.797,487.113 277.843,909.813 	"/>
	<polygon fill="#E9CFC4" points="1001.644,501.616 765.985,93.404 277.843,93.404 42.169,501.613 33.797,487.113 277.843,64.404 
		765.985,64.404 1010.013,487.113 	"/>
	<polygon fill="#E4221A" points="35.528,490.113 277.843,65.404 765.985,65.404 1008.276,490.109 1010.013,487.113 765.985,64.404 
		277.843,64.404 33.797,487.113 	"/>
	<polygon fill="#E4221A" points="36.676,488.1 277.843,905.813 765.985,905.813 1008.858,485.113 1010.013,487.113 765.985,909.813 
		277.843,909.813 33.797,487.113 	"/>
</g>
</svg>
