<?xml version="1.0" encoding="utf-8"?>
<!-- Generator: Adobe Illustrator 16.0.0, SVG Export Plug-In . SVG Version: 6.00 Build 0)  -->
<!DOCTYPE svg PUBLIC "-//W3C//DTD SVG 1.1//EN" "http://www.w3.org/Graphics/SVG/1.1/DTD/svg11.dtd">
<svg version="1.1" id="Ebene_1" xmlns="http://www.w3.org/2000/svg" xmlns:xlink="http://www.w3.org/1999/xlink" x="0px" y="0px"
	 width="1280px" height="1405px" viewBox="0 0 1280 1405" enable-background="new 0 0 1280 1405" xml:space="preserve">
<g>
	<rect x="745.879" y="161.5" fill="#FFFFFF" stroke="#000000" stroke-miterlimit="10" width="282" height="163"/>
	<rect x="1027.379" y="207" width="19" height="26"/>
	<rect x="1027.379" y="264" width="19" height="26"/>
	<rect x="726.379" y="207" width="19" height="26"/>
	<rect x="726.379" y="264" width="19" height="26"/>
</g>
<rect x="171.879" y="353.5" fill="#FFFFFF" stroke="#000000" stroke-miterlimit="10" width="282" height="338"/>
<rect x="171.879" y="1017.5" fill="#FFFFFF" stroke="#000000" stroke-miterlimit="10" width="282" height="338"/>
<text transform="matrix(1 0 0 1 171.8789 340.6343)" font-family="'MyriadPro-Regular'" font-size="12">freetzing bundle</text>
<text transform="matrix(1 0 0 1 183.8789 383.6338)" font-family="'MyriadPro-Regular'" font-size="12">Module ID</text>
<text transform="matrix(1 0 0 1 183.8789 616.6338)"><tspan x="0" y="0" font-family="'MyriadPro-Regular'" font-size="12">Views:</tspan><tspan x="0" y="14.4" font-family="'MyriadPro-Regular'" font-size="12" letter-spacing="33">	</tspan><tspan x="36" y="14.4" font-family="'MyriadPro-Regular'" font-size="12">Breadboard</tspan><tspan x="94.883" y="14.4" font-family="'MyriadPro-Regular'" font-size="12" letter-spacing="10">	</tspan><tspan x="108" y="14.4" font-family="'MyriadPro-Regular'" font-size="12">PCB</tspan></text>
<text transform="matrix(1 0 0 1 211.8789 435.6338)" font-family="'MyriadPro-Regular'" font-size="12">FB_01.ModuleId.Connectors.external</text>
<text transform="matrix(1 0 0 1 211.8789 452.6348)" font-family="'MyriadPro-Regular'" font-size="12">FB_02.ModuleId.Connectors.external</text>
<text transform="matrix(1 0 0 1 211.8789 468.6357)" font-family="'MyriadPro-Regular'" font-size="12">FB_03.ModuleId.Connectors.external</text>
<text transform="matrix(1 0 0 1 65.5454 383.6338)" font-family="'MyriadPro-Regular'" font-size="12">Connectors.external</text>
<text transform="matrix(1 0 0 1 183.8789 412)" font-family="'MyriadPro-Regular'" font-size="12">Connectors.internal</text>
<text transform="matrix(1 0 0 1 183.8789 1055.6006)" font-family="'MyriadPro-Regular'" font-size="12">Breadboard View ID</text>
<text transform="matrix(1 0 0 1 183.8789 1083.9668)" font-family="'MyriadPro-Regular'" font-size="12">Label: breadboard</text>
<text transform="matrix(1 0 0 1 183.8789 1113.2988)" font-family="'MyriadPro-Regular'" font-size="12">Modules: moduleId‘s</text>
<text transform="matrix(1 0 0 1 183.8789 1153.2988)"><tspan x="0" y="0" font-family="'MyriadPro-Regular'" font-size="12">Traces: </tspan><tspan x="0" y="14.4" font-family="'MyriadPro-Regular'" font-size="12" letter-spacing="33">	</tspan><tspan x="36" y="14.4" font-family="'MyriadPro-Regular'" font-size="12">traceId</tspan><tspan x="0" y="28.801" font-family="'MyriadPro-Regular'" font-size="12" letter-spacing="33">	</tspan><tspan x="36" y="28.801" font-family="'MyriadPro-Regular'" font-size="12">coords</tspan><tspan x="0" y="43.201" font-family="'MyriadPro-Regular'" font-size="12" letter-spacing="33">	</tspan><tspan x="36" y="43.201" font-family="'MyriadPro-Regular'" font-size="12">bendpoints</tspan><tspan x="0" y="57.601" font-family="'MyriadPro-Regular'" font-size="12" letter-spacing="33">	</tspan><tspan x="36" y="57.601" font-family="'MyriadPro-Regular'" font-size="12">from</tspan><tspan x="0" y="72" font-family="'MyriadPro-Regular'" font-size="12" letter-spacing="33">		</tspan><tspan x="72" y="72" font-family="'MyriadPro-Regular'" font-size="12">ModuleId,ConnId</tspan><tspan x="0" y="86.4" font-family="'MyriadPro-Regular'" font-size="12" letter-spacing="33">	</tspan><tspan x="36" y="86.4" font-family="'MyriadPro-Regular'" font-size="12">toConnId</tspan><tspan x="0" y="100.801" font-family="'MyriadPro-Regular'" font-size="12" letter-spacing="33">	</tspan><tspan x="36" y="100.801" font-family="'MyriadPro-Regular'" font-size="12" letter-spacing="33">	</tspan><tspan x="72" y="100.801" font-family="'MyriadPro-Regular'" font-size="12">ModuleId,ConnId</tspan></text>
<text transform="matrix(1 0 0 1 171.8789 317)" font-family="'MyriadPro-Regular'" font-size="40.5">FB</text>
<text transform="matrix(1 0 0 1 171.8789 1004.6348)" font-family="'MyriadPro-Regular'" font-size="12">freetzing view</text>
<text transform="matrix(1 0 0 1 171.8789 981)" font-family="'MyriadPro-Regular'" font-size="40.5">FV</text>
<rect x="453.379" y="399" width="19" height="26"/>
<rect x="453.379" y="456" width="19" height="26"/>
<rect x="453.379" y="516" width="19" height="26"/>
<rect x="453.379" y="576" width="19" height="26"/>
<rect x="152.379" y="399" width="19" height="26"/>
<rect x="152.379" y="456" width="19" height="26"/>
<rect x="152.379" y="516" width="19" height="26"/>
<rect x="152.379" y="576" width="19" height="26"/>
<text transform="matrix(1 0 0 1 745.8789 148.6343)" font-family="'MyriadPro-Regular'" font-size="12">freetzing bundle</text>
<text transform="matrix(1 0 0 1 757.8789 191.6338)" font-family="'MyriadPro-Regular'" font-size="12">Module ID: RGB-LED</text>
<text transform="matrix(1 0 0 1 1036.8789 190.6338)" font-family="'MyriadPro-Regular'" font-size="12">Connectors.external</text>
<text transform="matrix(1 0 0 1 745.8789 125)" font-family="'MyriadPro-Regular'" font-size="40.5">FB_01</text>
<g>
	<rect x="745.879" y="424.5" fill="#FFFFFF" stroke="#000000" stroke-miterlimit="10" width="282" height="163"/>
	<rect x="1027.379" y="470" width="19" height="26"/>
	<rect x="1027.379" y="527" width="19" height="26"/>
	<rect x="726.379" y="470" width="19" height="26"/>
	<rect x="726.379" y="527" width="19" height="26"/>
</g>
<text transform="matrix(1 0 0 1 745.8789 411.6348)" font-family="'MyriadPro-Regular'" font-size="12">freetzing bundle</text>
<text transform="matrix(1 0 0 1 757.8789 454.6338)" font-family="'MyriadPro-Regular'" font-size="12">Module ID: Shiftregister</text>
<text transform="matrix(1 0 0 1 1036.8789 453.6338)" font-family="'MyriadPro-Regular'" font-size="12">Connectors.external</text>
<text transform="matrix(1 0 0 1 745.8789 388)" font-family="'MyriadPro-Regular'" font-size="40.5">FB_02</text>
<g>
	<rect x="745.879" y="682.5" fill="#FFFFFF" stroke="#000000" stroke-miterlimit="10" width="282" height="163"/>
	<rect x="1027.379" y="728" width="19" height="26"/>
	<rect x="1027.379" y="785" width="19" height="26"/>
	<rect x="726.379" y="728" width="19" height="26"/>
	<rect x="726.379" y="785" width="19" height="26"/>
</g>
<text transform="matrix(1 0 0 1 745.8789 669.6348)" font-family="'MyriadPro-Regular'" font-size="12">freetzing bundle</text>
<text transform="matrix(1 0 0 1 757.8789 712.6338)" font-family="'MyriadPro-Regular'" font-size="12">Module ID: Shiftregister</text>
<text transform="matrix(1 0 0 1 1036.8789 711.6338)" font-family="'MyriadPro-Regular'" font-size="12">Connectors.external</text>
<text transform="matrix(1 0 0 1 745.8789 646)" font-family="'MyriadPro-Regular'" font-size="40.5">FB_02</text>
<rect x="680.879" y="77.5" fill="none" stroke="#000000" stroke-miterlimit="10" width="504" height="792"/>
<line fill="none" stroke="#000000" stroke-miterlimit="10" x1="401.982" y1="424.5" x2="680.879" y2="77.5"/>
<line fill="none" stroke="#000000" stroke-miterlimit="10" x1="401.982" y1="470" x2="680.879" y2="869.5"/>
<line fill="none" stroke="#000000" stroke-miterlimit="10" x1="280.988" y1="636.581" x2="453.879" y2="1017.5"/>
<line fill="none" stroke="#000000" stroke-miterlimit="10" x1="218.991" y1="638.582" x2="171.879" y2="1017.5"/>
<rect x="534.879" y="1017.5" fill="#FFFFFF" stroke="#000000" stroke-miterlimit="10" width="282" height="338"/>
<text transform="matrix(1 0 0 1 534.8789 1004.6348)" font-family="'MyriadPro-Regular'" font-size="12">freetzing view</text>
<text transform="matrix(1 0 0 1 534.8789 981)" font-family="'MyriadPro-Regular'" font-size="40.5">FV</text>
<line fill="none" stroke="#000000" stroke-miterlimit="10" x1="314.629" y1="635.25" x2="816.879" y2="1017.5"/>
<line fill="none" stroke="#000000" stroke-miterlimit="10" x1="290.991" y1="636.582" x2="534.879" y2="1017.5"/>
<text transform="matrix(1 0 0 1 551.8789 1055.6006)" font-family="'MyriadPro-Regular'" font-size="12">Pcb View ID</text>
<text transform="matrix(1 0 0 1 551.8789 1083.9668)" font-family="'MyriadPro-Regular'" font-size="12">Label: pcb</text>
<text transform="matrix(1 0 0 1 551.8789 1113.2988)" font-family="'MyriadPro-Regular'" font-size="12">Modules: moduleId‘s</text>
<text transform="matrix(1 0 0 1 551.8789 1153.2988)"><tspan x="0" y="0" font-family="'MyriadPro-Regular'" font-size="12">Traces: </tspan><tspan x="0" y="14.4" font-family="'MyriadPro-Regular'" font-size="12" letter-spacing="33">	</tspan><tspan x="36" y="14.4" font-family="'MyriadPro-Regular'" font-size="12">traceId</tspan><tspan x="0" y="28.801" font-family="'MyriadPro-Regular'" font-size="12" letter-spacing="33">	</tspan><tspan x="36" y="28.801" font-family="'MyriadPro-Regular'" font-size="12">coords</tspan><tspan x="0" y="43.201" font-family="'MyriadPro-Regular'" font-size="12" letter-spacing="33">	</tspan><tspan x="36" y="43.201" font-family="'MyriadPro-Regular'" font-size="12">bendpoints</tspan><tspan x="0" y="57.601" font-family="'MyriadPro-Regular'" font-size="12" letter-spacing="33">	</tspan><tspan x="36" y="57.601" font-family="'MyriadPro-Regular'" font-size="12">from</tspan><tspan x="0" y="72" font-family="'MyriadPro-Regular'" font-size="12" letter-spacing="33">		</tspan><tspan x="72" y="72" font-family="'MyriadPro-Regular'" font-size="12">ModuleId,ConnId</tspan><tspan x="0" y="86.4" font-family="'MyriadPro-Regular'" font-size="12" letter-spacing="33">	</tspan><tspan x="36" y="86.4" font-family="'MyriadPro-Regular'" font-size="12">toConnId</tspan><tspan x="0" y="100.801" font-family="'MyriadPro-Regular'" font-size="12" letter-spacing="33">	</tspan><tspan x="36" y="100.801" font-family="'MyriadPro-Regular'" font-size="12" letter-spacing="33">	</tspan><tspan x="72" y="100.801" font-family="'MyriadPro-Regular'" font-size="12">ModuleId,ConnId</tspan></text>
</svg>
